PathFileType	4	(X/Y/Z)	static_1_OpenSim.trc.	Data\Walking\Mocap\Sub011\Generated_files\Files_W_HJCs																																																																																																																																																															
DataRate	CameraRate	NumFrames	NumMarkers	Units	OrigDataRate	OrigDataStartFrame	OrigNumFrames																																																																																																																																																												
100	100	7	54	mm	100	369	491																																																																																																																																																												
Frame#	Time	R.ASIS			R.PSIS			S2			L.PSIS			L.ASIS			R.TH1			R.TH2			R.TH3			R.Knee			R.SH1			R.SH2			R.SH3			R.SH4			R.Ankle			R.MAnkle			R.Heel			R.LatHeel			R.PT			R.MT5			R.Toe			R.MT1			R.ProxMet1			R.ST			R.MedHeel			L.TH1			L.TH2			L.TH3			L.TH4			L.Knee			L.SH1			L.SH2			L.SH3			L.Ankle			L.MAnkle			L.Heel			L.LatHeel			L.PT			L.MT5			L.Toe			L.MT1			L.ProxMet1			L.ST			L.MedHeel			T.Med			T.Lat			T.Bot			R.Acr			L.Acr			C7			Clav			R.MKnee			L.MKnee			R_HJC			L_HJC		
		X1	Y1	Z1	X2	Y2	Z2	X3	Y3	Z3	X4	Y4	Z4	X5	Y5	Z5	X6	Y6	Z6	X7	Y7	Z7	X8	Y8	Z8	X9	Y9	Z9	X10	Y10	Z10	X11	Y11	Z11	X12	Y12	Z12	X13	Y13	Z13	X14	Y14	Z14	X15	Y15	Z15	X16	Y16	Z16	X17	Y17	Z17	X18	Y18	Z18	X19	Y19	Z19	X20	Y20	Z20	X21	Y21	Z21	X22	Y22	Z22	X23	Y23	Z23	X24	Y24	Z24	X25	Y25	Z25	X26	Y26	Z26	X27	Y27	Z27	X28	Y28	Z28	X29	Y29	Z29	X30	Y30	Z30	X31	Y31	Z31	X32	Y32	Z32	X33	Y33	Z33	X34	Y34	Z34	X35	Y35	Z35	X36	Y36	Z36	X37	Y37	Z37	X38	Y38	Z38	X39	Y39	Z39	X40	Y40	Z40	X41	Y41	Z41	X42	Y42	Z42	X43	Y43	Z43	X44	Y44	Z44	X45	Y45	Z45	X46	Y46	Z46	X47	Y47	Z47	X48	Y48	Z48	X49	Y49	Z49	X50	Y50	Z50	X51	Y51	Z51	X52	Y52	Z52	X53	Y53	Z53	X54	Y54	Z54
																																																																																																																																																																			
369	3.68	1228.35	995.499	-426.844	1054.183	1008.643	-494.33	1054.143	990.752	-552.288	1060.574	1006.039	-603.12	1248.578	984.72	-653.752	1258.204	700.85	-413.923	1201.922	700.731	-352.071	1184.671	593.45	-371.427	1149.515	465.805	-385.747	1144.344	353.717	-379.017	1137.314	241.421	-386.151	1061.702	360.602	-376.346	1057.527	246.704	-375.202	1090.784	91.175	-406.9	1104.524	98.797	-480.808	1022.648	65.602	-450.625	1050.976	42.177	-407.017	1122.129	41.59	-389.925	1212.235	35.357	-378.794	1283.177	44.964	-432.272	1230.141	44.653	-474.49	1190.606	63.958	-472.61	1130.73	41.945	-488.206	1059.321	38.663	-485.636	1237.126	722.012	-721.243	1217.172	616.723	-702.526	1156.669	726.768	-752.851	1139.882	621.044	-725.035	1151.158	449.401	-695.746	1165.032	361.638	-693.844	1089.938	373.187	-726.646	1075.294	264.522	-723.253	1097.34	79.487	-690.383	1113.671	100.984	-612.396	1028.578	61.662	-649.47	1055.73	35.299	-691.271	1123.634	37.735	-704.857	1215.679	29.691	-715.966	1291.027	41.914	-657.811	1233.391	42.016	-618.528	1185.922	66.672	-618.735	1137.895	38.146	-606.315	1078.428	40.417	-610.758	1006.404	260.911	-488.484	1003.515	263.588	-451.232	1020.636	230.788	-460.838	1122.057	1394.354	-397.63	1156.254	1385.433	-732.616	1084.915	1422.241	-567.325	1215.878	1347.343	-555.714	1136.83	463.586	-504.309	1135.484	458.788	-592.99	1181.79	854.268	-446.978	1191.438	851.363	-635.227
370	3.69	1228.346	995.524	-426.788	1054.179	1008.661	-494.285	1054.128	990.759	-552.21	1060.55	1006.053	-603.117	1248.591	984.76	-653.734	1258.215	700.821	-413.986	1201.937	700.78	-352.036	1184.656	593.495	-371.315	1149.516	465.859	-385.686	1144.344	353.734	-378.994	1137.294	241.396	-386.128	1061.658	360.617	-376.324	1057.525	246.694	-375.186	1090.819	91.133	-406.963	1104.587	98.817	-480.791	1022.663	65.656	-450.67	1050.926	42.218	-406.956	1122.145	41.611	-389.943	1212.263	35.411	-378.782	1283.231	45.062	-432.265	1230.134	44.664	-474.49	1190.584	63.974	-472.578	1130.723	41.897	-488.223	1059.347	38.678	-485.661	1237.184	722.117	-721.172	1217.157	616.767	-702.461	1156.643	726.772	-752.803	1139.844	621.024	-724.964	1151.156	449.387	-695.706	1165.088	361.72	-693.82	1089.939	373.211	-726.615	1075.299	264.548	-723.217	1097.409	79.476	-690.309	1113.666	100.981	-612.359	1028.557	61.682	-649.516	1055.721	35.313	-691.295	1123.648	37.765	-704.853	1215.681	29.72	-715.968	1291.024	41.949	-657.758	1233.398	42.086	-618.496	1185.908	66.68	-618.733	1137.878	38.161	-606.276	1078.478	40.41	-610.742	1006.373	260.939	-488.44	1003.517	263.599	-451.241	1020.625	230.78	-460.851	1122.058	1394.367	-397.598	1156.224	1385.456	-732.621	1084.869	1422.242	-567.293	1215.879	1347.388	-555.708	1136.817	463.554	-504.231	1135.512	458.804	-592.924	1181.802	854.292	-446.942	1191.447	851.394	-635.191
371	3.7	1228.34	995.523	-426.75	1054.178	1008.667	-494.222	1054.105	990.743	-552.192	1060.537	1006.035	-603.034	1248.572	984.787	-653.691	1258.225	700.875	-413.846	1201.897	700.789	-351.999	1184.662	593.487	-371.289	1149.505	465.835	-385.684	1144.315	353.71	-378.97	1137.3	241.385	-386.128	1061.698	360.603	-376.34	1057.544	246.699	-375.183	1090.76	91.158	-406.911	1104.464	98.816	-480.885	1022.636	65.633	-450.634	1051.003	42.196	-407.024	1122.044	41.794	-389.854	1212.235	35.436	-378.766	1283.175	45.046	-432.243	1230.13	44.667	-474.47	1190.599	64.049	-472.57	1130.707	41.949	-488.215	1059.316	38.694	-485.649	1237.187	722.208	-721.115	1217.157	616.765	-702.446	1156.616	726.751	-752.771	1139.852	621.049	-724.925	1151.143	449.425	-695.694	1165.041	361.698	-693.787	1089.902	373.192	-726.613	1075.281	264.591	-723.217	1097.356	79.421	-690.204	1113.637	100.992	-612.356	1028.574	61.714	-649.495	1055.736	35.306	-691.248	1123.609	37.8	-704.824	1215.642	29.734	-715.954	1291.012	41.99	-657.777	1233.382	42.1	-618.488	1185.842	66.583	-618.751	1137.86	38.14	-606.287	1078.495	40.418	-610.719	1006.376	260.955	-488.426	1003.516	263.599	-451.198	1020.621	230.768	-460.835	1122.067	1394.367	-397.578	1156.13	1385.44	-732.633	1084.839	1422.222	-567.259	1215.854	1347.425	-555.713	1136.797	463.572	-504.232	1135.164	458.963	-592.774	1181.813	854.292	-446.906	1191.446	851.406	-635.156
372	3.71	1228.311	995.527	-426.709	1054.181	1008.64	-494.192	1054.101	990.738	-552.141	1060.513	1006.041	-603.047	1248.531	984.785	-653.677	1258.222	700.814	-413.815	1201.84	700.739	-351.952	1184.651	593.421	-371.323	1149.371	465.887	-385.765	1144.283	353.712	-378.924	1137.319	241.392	-386.099	1061.61	360.587	-376.288	1057.509	246.705	-375.164	1090.772	91.164	-406.875	1104.531	98.804	-480.877	1022.63	65.617	-450.596	1050.993	42.143	-407.045	1122.04	41.588	-389.905	1212.189	35.399	-378.784	1283.126	45.031	-432.236	1230.093	44.692	-474.474	1190.552	63.93	-472.851	1130.643	41.968	-488.213	1059.373	38.638	-485.668	1237.134	722.093	-721.12	1217.511	616.662	-702.346	1156.6	726.769	-752.784	1139.858	621.035	-724.88	1151.141	449.407	-695.725	1165.015	361.721	-693.8	1089.92	373.205	-726.609	1075.247	264.557	-723.218	1097.354	79.444	-690.344	1113.605	100.952	-612.362	1028.578	61.71	-649.52	1055.728	35.303	-691.285	1123.589	37.786	-704.854	1215.618	29.758	-715.951	1290.984	41.962	-657.788	1233.35	42.086	-618.511	1185.779	66.536	-618.733	1137.841	38.125	-606.287	1078.469	40.398	-610.784	1006.341	260.934	-488.387	1003.535	263.554	-451.188	1020.62	230.775	-460.834	1122.096	1394.399	-397.573	1156.122	1385.43	-732.621	1084.817	1422.209	-567.265	1215.831	1347.454	-555.706	1136.837	463.581	-504.244	1135.166	458.913	-592.814	1181.803	854.288	-446.885	1191.431	851.406	-635.136
373	3.72	1228.302	995.513	-426.679	1054.212	1008.607	-494.099	1054.089	990.739	-552.115	1060.51	1006.031	-602.983	1248.526	984.844	-653.587	1258.226	700.814	-413.804	1201.874	700.657	-352.079	1184.629	593.468	-371.214	1149.355	465.917	-385.711	1144.279	353.72	-378.913	1137.279	241.393	-386.079	1061.647	360.565	-376.26	1057.488	246.671	-375.147	1090.739	91.216	-406.864	1104.546	98.791	-480.837	1022.612	65.599	-450.663	1050.997	42.217	-407.034	1121.995	41.815	-389.848	1212.165	35.392	-378.788	1283.137	45.045	-432.31	1230.088	44.669	-474.505	1190.523	63.977	-472.627	1130.629	41.943	-488.24	1059.359	38.684	-485.676	1237.119	722.068	-721.11	1217.494	616.642	-702.354	1156.647	726.734	-752.66	1139.853	621.044	-724.84	1151.105	449.404	-695.724	1165.008	361.699	-693.802	1089.807	373.242	-726.471	1075.254	264.538	-723.185	1097.4	79.442	-690.282	1113.598	100.969	-612.36	1028.546	61.662	-649.609	1055.721	35.282	-691.296	1123.568	37.767	-704.861	1215.598	29.726	-715.987	1290.973	41.952	-657.796	1233.333	42.069	-618.537	1185.786	66.598	-618.752	1137.851	38.146	-606.298	1078.494	40.393	-610.741	1006.362	260.923	-488.423	1003.531	263.542	-451.198	1020.622	230.773	-460.82	1122.089	1394.441	-397.526	1156.111	1385.411	-732.612	1084.796	1422.128	-567.322	1215.868	1347.532	-555.699	1136.746	463.561	-504.186	1135.214	458.935	-592.76	1181.834	854.27	-446.867	1191.461	851.445	-635.118
374	3.73	1228.326	995.541	-426.634	1054.202	1008.611	-494.098	1054.097	990.749	-552.053	1060.531	1006.031	-602.926	1248.539	984.818	-653.554	1258.233	700.818	-413.818	1201.856	700.795	-351.895	1184.658	593.475	-371.224	1149.366	465.935	-385.679	1144.288	353.717	-378.88	1137.315	241.408	-386.091	1061.672	360.597	-376.293	1057.529	246.711	-375.137	1090.747	91.218	-406.857	1104.558	98.791	-480.888	1022.635	65.635	-450.633	1050.977	42.172	-407.028	1122.001	41.831	-389.847	1212.167	35.376	-378.801	1283.149	45.042	-432.309	1230.099	44.656	-474.515	1190.555	63.917	-472.87	1130.656	41.981	-488.212	1059.381	38.64	-485.697	1237.177	722.054	-721.045	1217.514	616.651	-702.277	1156.633	726.733	-752.643	1139.869	621.038	-724.816	1151.131	449.408	-695.64	1165.037	361.709	-693.786	1089.919	373.197	-726.59	1075.256	264.542	-723.18	1097.375	79.38	-690.273	1113.617	100.977	-612.356	1028.55	61.663	-649.607	1055.747	35.255	-691.246	1123.583	37.753	-704.88	1215.599	29.687	-715.974	1290.998	41.964	-657.794	1233.352	42.065	-618.549	1185.828	66.678	-618.753	1137.863	38.171	-606.309	1078.5	40.406	-610.764	1006.368	260.925	-488.392	1003.533	263.545	-451.166	1020.632	230.775	-460.788	1122.119	1394.44	-397.515	1156.102	1385.424	-732.602	1084.767	1422.156	-567.299	1215.889	1347.586	-555.697	1136.807	463.584	-504.174	1135.173	458.965	-592.702	1181.841	854.292	-446.799	1191.467	851.428	-635.049
375	3.74	1228.339	995.513	-426.607	1054.16	1008.62	-494.062	1054.11	990.743	-552.018	1060.521	1006.04	-602.902	1248.553	984.735	-653.565	1258.224	700.796	-413.756	1201.877	700.585	-351.972	1184.644	593.478	-371.166	1149.363	465.895	-385.651	1144.299	353.71	-378.884	1137.281	241.381	-386.063	1061.628	360.579	-376.237	1057.514	246.673	-375.124	1090.775	91.162	-406.878	1104.623	98.799	-480.782	1022.631	65.597	-450.664	1050.972	42.176	-407.013	1122.074	41.615	-389.92	1212.187	35.348	-378.796	1283.146	44.989	-432.285	1230.096	44.626	-474.494	1190.563	63.985	-472.609	1130.681	41.956	-488.226	1059.303	38.599	-485.65	1237.154	722.05	-720.983	1217.513	616.642	-702.221	1156.649	726.729	-752.556	1139.873	621.053	-724.811	1151.157	449.368	-695.676	1165.021	361.665	-693.76	1089.916	373.187	-726.573	1075.25	264.542	-723.175	1097.363	79.484	-690.35	1113.616	100.974	-612.388	1028.545	61.654	-649.593	1055.695	35.267	-691.257	1123.591	37.738	-704.855	1215.599	29.677	-715.979	1290.979	41.927	-657.798	1233.368	42.045	-618.533	1185.805	66.601	-618.732	1137.849	38.138	-606.284	1078.484	40.394	-610.724	1006.376	260.931	-488.378	1003.519	263.565	-451.163	1020.628	230.778	-460.789	1122.131	1394.49	-397.508	1156.1	1385.432	-732.59	1084.744	1422.184	-567.277	1215.885	1347.569	-555.703	1136.817	463.552	-504.142	1135.579	458.798	-592.815	1181.8	854.271	-446.757	1191.414	851.375	-635.007
